<?xml version="1.0" encoding="UTF-8" standalone="no"?>
<!-- Generator: Adobe Illustrator 17.1.0, SVG Export Plug-In . SVG Version: 6.00 Build 0)  -->

<svg
   xmlns:dc="http://purl.org/dc/elements/1.1/"
   xmlns:cc="http://creativecommons.org/ns#"
   xmlns:rdf="http://www.w3.org/1999/02/22-rdf-syntax-ns#"
   xmlns:svg="http://www.w3.org/2000/svg"
   xmlns="http://www.w3.org/2000/svg"
   xmlns:sodipodi="http://sodipodi.sourceforge.net/DTD/sodipodi-0.dtd"
   xmlns:inkscape="http://www.inkscape.org/namespaces/inkscape"
   version="1.1"
   id="Layer_1"
   x="0px"
   y="0px"
   viewBox="0 0 300 28"
   enable-background="new 0 0 100 90"
   xml:space="preserve"
   inkscape:version="0.48.4 r9939"
   width="100%"
   height="100%"
   sodipodi:docname="vfo-logo.svg"><metadata
     id="metadata93"><rdf:RDF><cc:Work
         rdf:about=""><dc:format>image/svg+xml</dc:format><dc:type
           rdf:resource="http://purl.org/dc/dcmitype/StillImage" /><dc:title></dc:title></cc:Work></rdf:RDF></metadata><defs
     id="defs91" /><sodipodi:namedview
     pagecolor="#ffffff"
     bordercolor="#666666"
     borderopacity="1"
     objecttolerance="10"
     gridtolerance="10"
     guidetolerance="10"
     inkscape:pageopacity="0"
     inkscape:pageshadow="2"
     inkscape:window-width="1366"
     inkscape:window-height="711"
     id="namedview89"
     showgrid="false"
     inkscape:zoom="2.6222222"
     inkscape:cx="170.29408"
     inkscape:cy="45"
     inkscape:window-x="-3"
     inkscape:window-y="-3"
     inkscape:window-maximized="1"
     inkscape:current-layer="Layer_1" /><g
     enable-background="new    "
     id="g3"
     transform="matrix(2.9357485,0,0,2.9357485,2.2163212,-121.22205)"><path
       d="m 33.743164,44.948929 h -0.903808 v 3.378906 h -0.559082 v -3.378906 h -0.805665 v -0.467774 h 0.805665 v -1.052734 c 0,-0.438477 0.106933,-0.783203 0.320312,-1.035156 0.213867,-0.251953 0.542969,-0.378906 0.986816,-0.378906 0.0708,0 0.14795,0.0049 0.229981,0.0127 0.08203,0.0078 0.158691,0.02344 0.22998,0.04492 l -0.09863,0.493164 c -0.06006,-0.01563 -0.120606,-0.0293 -0.180664,-0.04102 -0.06055,-0.01074 -0.128907,-0.0166 -0.205567,-0.0166 -0.147949,0 -0.270019,0.02539 -0.365723,0.07422 -0.09619,0.0498 -0.169921,0.119141 -0.222168,0.209961 -0.05176,0.08984 -0.0874,0.196289 -0.106445,0.316407 -0.01953,0.120117 -0.02881,0.249023 -0.02881,0.386718 v 0.986328 h 0.903808 v 0.467774 z"
       id="path5"
       inkscape:connector-curvature="0"
       style="fill:#7c7975" /><path
       d="m 38.362793,46.404007 c 0,0.291016 -0.05029,0.55957 -0.151856,0.805664 -0.101562,0.24707 -0.242675,0.460938 -0.423339,0.641602 -0.180664,0.180664 -0.397461,0.322265 -0.649414,0.422851 -0.251954,0.101563 -0.528809,0.152344 -0.830079,0.152344 -0.295898,0 -0.570312,-0.05078 -0.822265,-0.152344 -0.251953,-0.100586 -0.468262,-0.242187 -0.649414,-0.422851 -0.180664,-0.180664 -0.321778,-0.394532 -0.42334,-0.641602 -0.101563,-0.246094 -0.151856,-0.514648 -0.151856,-0.805664 0,-0.290039 0.05029,-0.558594 0.151856,-0.805664 0.101562,-0.246094 0.242676,-0.459961 0.42334,-0.640625 0.181152,-0.180664 0.397461,-0.322266 0.649414,-0.423828 0.251953,-0.100586 0.526367,-0.151367 0.822265,-0.151367 0.30127,0 0.578125,0.05078 0.830079,0.151367 0.251953,0.101562 0.46875,0.243164 0.649414,0.423828 0.180664,0.180664 0.321777,0.394531 0.423339,0.640625 0.101563,0.24707 0.151856,0.515625 0.151856,0.805664 z m -0.591797,0 c 0,-0.213867 -0.03418,-0.415039 -0.102539,-0.603516 -0.06885,-0.189453 -0.166016,-0.353515 -0.291992,-0.493164 -0.125977,-0.140625 -0.279297,-0.250976 -0.460449,-0.333008 -0.180665,-0.08301 -0.383301,-0.124023 -0.607911,-0.124023 -0.225097,0 -0.426269,0.04102 -0.604492,0.124023 -0.178223,0.08203 -0.330078,0.192383 -0.456055,0.333008 -0.125976,0.139649 -0.223144,0.303711 -0.291992,0.493164 -0.06836,0.188477 -0.102539,0.389649 -0.102539,0.603516 0,0.213867 0.03418,0.415039 0.102539,0.604492 0.06885,0.189453 0.166016,0.353516 0.291992,0.493164 0.125977,0.139649 0.277832,0.249024 0.456055,0.329102 0.178223,0.0791 0.379395,0.119141 0.604492,0.119141 0.22461,0 0.427246,-0.04004 0.607911,-0.119141 0.181152,-0.08008 0.334472,-0.189453 0.460449,-0.329102 0.125976,-0.139648 0.223144,-0.303711 0.291992,-0.493164 0.06836,-0.189453 0.102539,-0.390625 0.102539,-0.604492 z"
       id="path7"
       inkscape:connector-curvature="0"
       style="fill:#7c7975" /><path
       d="m 39.554687,44.924515 c -0.0054,-0.164063 -0.01367,-0.3125 -0.02441,-0.44336 h 0.53418 c 0.01074,0.103516 0.01904,0.21875 0.0249,0.344727 0.0054,0.125977 0.0078,0.230469 0.0078,0.3125 h 0.0166 c 0.109375,-0.224609 0.273925,-0.407227 0.493164,-0.546875 0.219238,-0.139648 0.46582,-0.208984 0.739746,-0.208984 0.07129,0 0.135742,0.002 0.193359,0.0078 0.05762,0.0059 0.116211,0.0166 0.176758,0.0332 l -0.07422,0.53418 c -0.03272,-0.01074 -0.0874,-0.02246 -0.164062,-0.0332 -0.07715,-0.01074 -0.153809,-0.0166 -0.230469,-0.0166 -0.147949,0 -0.290527,0.02734 -0.427246,0.08203 -0.137207,0.05469 -0.256348,0.141602 -0.357422,0.25879 -0.101563,0.117187 -0.184082,0.267578 -0.246582,0.451171 -0.06348,0.182618 -0.09473,0.403321 -0.09473,0.660157 v 1.967773 h -0.559082 v -3 c 0,-0.104492 -0.0029,-0.238281 -0.0083,-0.40332 z"
       id="path9"
       inkscape:connector-curvature="0"
       style="fill:#7c7975" /><path
       d="m 48.399414,46.404007 c 0,0.291016 -0.05029,0.55957 -0.151855,0.805664 -0.101563,0.24707 -0.242676,0.460938 -0.42334,0.641602 -0.180664,0.180664 -0.397461,0.322265 -0.649414,0.422851 -0.251953,0.101563 -0.528809,0.152344 -0.830078,0.152344 -0.295899,0 -0.570313,-0.05078 -0.822266,-0.152344 -0.251953,-0.100586 -0.468262,-0.242187 -0.649414,-0.422851 -0.180664,-0.180664 -0.321777,-0.394532 -0.42334,-0.641602 -0.101562,-0.246094 -0.151855,-0.514648 -0.151855,-0.805664 0,-0.290039 0.05029,-0.558594 0.151855,-0.805664 0.101563,-0.246094 0.242676,-0.459961 0.42334,-0.640625 0.181152,-0.180664 0.397461,-0.322266 0.649414,-0.423828 0.251953,-0.100586 0.526367,-0.151367 0.822266,-0.151367 0.301269,0 0.578125,0.05078 0.830078,0.151367 0.251953,0.101562 0.46875,0.243164 0.649414,0.423828 0.180664,0.180664 0.321777,0.394531 0.42334,0.640625 0.101562,0.24707 0.151855,0.515625 0.151855,0.805664 z m -0.591797,0 c 0,-0.213867 -0.03418,-0.415039 -0.102539,-0.603516 -0.06885,-0.189453 -0.166016,-0.353515 -0.291992,-0.493164 -0.125977,-0.140625 -0.279297,-0.250976 -0.460449,-0.333008 -0.180664,-0.08301 -0.383301,-0.124023 -0.607911,-0.124023 -0.225097,0 -0.426269,0.04102 -0.604492,0.124023 -0.178222,0.08203 -0.330078,0.192383 -0.456054,0.333008 -0.125977,0.139649 -0.223145,0.303711 -0.291993,0.493164 -0.06836,0.188477 -0.102539,0.389649 -0.102539,0.603516 0,0.213867 0.03418,0.415039 0.102539,0.604492 0.06885,0.189453 0.166016,0.353516 0.291993,0.493164 0.125976,0.139649 0.277832,0.249024 0.456054,0.329102 0.178223,0.0791 0.379395,0.119141 0.604492,0.119141 0.22461,0 0.427247,-0.04004 0.607911,-0.119141 0.181152,-0.08008 0.334472,-0.189453 0.460449,-0.329102 0.125976,-0.139648 0.223144,-0.303711 0.291992,-0.493164 0.06836,-0.189453 0.102539,-0.390625 0.102539,-0.604492 z"
       id="path11"
       inkscape:connector-curvature="0"
       style="fill:#7c7975" /><path
       d="m 49.591309,44.924515 c -0.0054,-0.164063 -0.01367,-0.3125 -0.02442,-0.44336 h 0.534668 c 0.0098,0.103516 0.01855,0.21875 0.02441,0.344727 0.0049,0.125977 0.0078,0.230469 0.0078,0.3125 h 0.0166 c 0.109375,-0.224609 0.273437,-0.407227 0.493164,-0.546875 0.219726,-0.139648 0.46582,-0.208984 0.739258,-0.208984 0.07227,0 0.136718,0.002 0.193359,0.0078 0.05859,0.0059 0.117187,0.0166 0.177734,0.0332 l -0.07422,0.53418 c -0.0332,-0.01074 -0.08789,-0.02246 -0.164063,-0.0332 -0.07813,-0.01074 -0.154297,-0.0166 -0.230469,-0.0166 -0.148437,0 -0.291015,0.02734 -0.427734,0.08203 -0.136719,0.05469 -0.25586,0.141602 -0.357422,0.258789 -0.101563,0.117188 -0.183594,0.267579 -0.246094,0.451172 -0.06445,0.182618 -0.0957,0.403321 -0.0957,0.660157 v 1.967773 h -0.558594 v -3 c 0,-0.104492 -0.0029,-0.238281 -0.0083,-0.40332 z"
       id="path13"
       inkscape:connector-curvature="0"
       style="fill:#7c7975" /><path
       d="m 52.616211,49.100296 c 0.15332,0.197266 0.363281,0.364258 0.628906,0.501953 0.265625,0.136719 0.546875,0.205078 0.842773,0.205078 0.273438,0 0.506836,-0.04004 0.698243,-0.11914 0.192382,-0.0791 0.346679,-0.1875 0.464843,-0.324219 0.117188,-0.137695 0.204102,-0.297852 0.25879,-0.481445 0.05469,-0.183594 0.08203,-0.378907 0.08203,-0.587891 v -0.722656 h -0.0166 c -0.147461,0.241211 -0.357422,0.426757 -0.628906,0.558593 -0.270508,0.131836 -0.545898,0.197266 -0.826172,0.197266 -0.300781,0 -0.573242,-0.0498 -0.817383,-0.148437 -0.24414,-0.09863 -0.452148,-0.233399 -0.625,-0.40625 -0.172851,-0.172852 -0.30664,-0.379883 -0.402343,-0.621094 -0.09668,-0.241211 -0.144532,-0.500977 -0.144532,-0.780274 0,-0.274414 0.04785,-0.532226 0.144532,-0.773437 0.0957,-0.240234 0.229492,-0.452148 0.402343,-0.632813 0.172852,-0.180664 0.38086,-0.323242 0.625,-0.426757 0.244141,-0.104493 0.516602,-0.15625 0.817383,-0.15625 0.280273,0 0.553711,0.06543 0.822266,0.197265 0.268554,0.13086 0.479492,0.320313 0.632812,0.566406 h 0.0166 v -0.665039 h 0.55957 v 3.813477 c 0,0.208984 -0.0293,0.430664 -0.08691,0.666016 -0.05762,0.235351 -0.164063,0.452148 -0.320313,0.649414 -0.15625,0.197265 -0.36914,0.361328 -0.636718,0.493164 -0.269531,0.131836 -0.617188,0.197265 -1.044922,0.197265 -0.355469,0 -0.695313,-0.06836 -1.018555,-0.205078 -0.323242,-0.137695 -0.600586,-0.326172 -0.830078,-0.567383 l 0.402344,-0.427734 z m 0.106445,-2.745117 c 0,0.202148 0.0332,0.394531 0.09863,0.575195 0.06641,0.180664 0.161133,0.339844 0.28418,0.476563 0.123047,0.137695 0.27539,0.245117 0.456054,0.325195 0.180665,0.0791 0.386719,0.11914 0.616211,0.11914 0.213868,0 0.411133,-0.03613 0.591797,-0.107421 0.181641,-0.07129 0.337891,-0.171875 0.46875,-0.303711 0.131836,-0.131836 0.234375,-0.289063 0.308594,-0.472657 0.07422,-0.183593 0.110352,-0.387695 0.110352,-0.612304 0,-0.203125 -0.03613,-0.394531 -0.110352,-0.575196 -0.07422,-0.18164 -0.176758,-0.339843 -0.308594,-0.477539 -0.130859,-0.136718 -0.287109,-0.246093 -0.46875,-0.328125 -0.180664,-0.08301 -0.37793,-0.124023 -0.591797,-0.124023 -0.229492,0 -0.435547,0.04102 -0.616211,0.124023 -0.180664,0.08203 -0.333007,0.191407 -0.456054,0.328125 -0.123047,0.137696 -0.217774,0.295899 -0.28418,0.477539 -0.06543,0.180665 -0.09863,0.372071 -0.09863,0.575196 z"
       id="path15"
       inkscape:connector-curvature="0"
       style="fill:#7c7975" /><path
       d="m 60.03125,45.837601 c 0,-0.331055 -0.08789,-0.579102 -0.263672,-0.742188 -0.174805,-0.163086 -0.429687,-0.245117 -0.763672,-0.245117 -0.230469,0 -0.444336,0.04102 -0.641601,0.124023 -0.197266,0.08203 -0.364258,0.191407 -0.500977,0.328125 l -0.3125,-0.36914 c 0.158203,-0.15918 0.368164,-0.291016 0.628906,-0.394531 0.259766,-0.104493 0.554688,-0.15625 0.882813,-0.15625 0.208984,0 0.40332,0.02832 0.583984,0.08594 0.180664,0.05762 0.339844,0.143555 0.476563,0.258789 0.137695,0.115235 0.24414,0.260742 0.321289,0.435547 0.07617,0.175781 0.114257,0.380859 0.114257,0.617188 v 1.68457 c 0,0.148437 0.0059,0.301758 0.0166,0.460937 0.01074,0.158203 0.02734,0.292969 0.0498,0.402344 h -0.501953 c -0.0166,-0.09277 -0.03027,-0.194336 -0.04102,-0.303711 -0.01074,-0.110351 -0.0166,-0.216797 -0.0166,-0.321289 h -0.01563 c -0.175781,0.257813 -0.374023,0.442383 -0.596679,0.554688 -0.22168,0.112304 -0.489258,0.168945 -0.800781,0.168945 -0.148438,0 -0.300782,-0.02051 -0.457032,-0.06152 -0.15625,-0.04102 -0.297851,-0.108399 -0.426757,-0.202149 -0.128907,-0.09375 -0.236329,-0.214844 -0.32129,-0.363281 -0.08496,-0.148437 -0.126953,-0.330078 -0.126953,-0.543945 0,-0.296875 0.0752,-0.532227 0.225586,-0.705078 0.151367,-0.173829 0.352539,-0.302735 0.604492,-0.387696 0.251954,-0.08594 0.541016,-0.140625 0.867188,-0.165039 0.326172,-0.02441 0.665039,-0.03711 1.015625,-0.03711 v -0.123047 z m -0.165039,0.566406 c -0.229492,0 -0.460938,0.0098 -0.694336,0.0293 -0.232422,0.01855 -0.443359,0.05762 -0.632813,0.115234 -0.189453,0.05762 -0.34375,0.140625 -0.464843,0.25 -0.120118,0.110352 -0.180664,0.254883 -0.180664,0.435547 0,0.137695 0.02637,0.25293 0.07813,0.345703 0.05176,0.09277 0.12207,0.168946 0.20996,0.225586 0.08691,0.05762 0.184571,0.09863 0.291993,0.124024 0.106445,0.02441 0.214843,0.03711 0.324218,0.03711 0.197266,0 0.373047,-0.03418 0.526368,-0.103516 0.15332,-0.06836 0.282226,-0.161132 0.385742,-0.279297 0.104492,-0.117187 0.183594,-0.252929 0.239258,-0.40625 0.05469,-0.15332 0.08203,-0.315429 0.08203,-0.485351 v -0.288086 h -0.165039 z"
       id="path17"
       inkscape:connector-curvature="0"
       style="fill:#7c7975" /><path
       d="m 62.49707,44.481155 c 0.01074,0.103516 0.01953,0.21875 0.02441,0.344727 0.0059,0.125977 0.0088,0.230469 0.0088,0.3125 h 0.0166 c 0.109375,-0.224609 0.287109,-0.407227 0.53418,-0.546875 0.246094,-0.139648 0.506836,-0.208984 0.780273,-0.208984 0.488281,0 0.853516,0.144531 1.097656,0.435546 0.244141,0.29004 0.366211,0.673829 0.366211,1.150391 v 2.359375 h -0.55957 v -2.128906 c 0,-0.203125 -0.0166,-0.386719 -0.04883,-0.550781 -0.0332,-0.164063 -0.08984,-0.305664 -0.168945,-0.423828 -0.0791,-0.117188 -0.186524,-0.208985 -0.320313,-0.275391 -0.134765,-0.06543 -0.302734,-0.09863 -0.505859,-0.09863 -0.147461,0 -0.291993,0.03027 -0.431641,0.09082 -0.139648,0.06055 -0.263672,0.152344 -0.374023,0.275391 -0.109375,0.123047 -0.197266,0.279297 -0.262696,0.46875 -0.06543,0.188477 -0.09863,0.412109 -0.09863,0.669922 v 1.972656 h -0.558594 v -3 c 0,-0.104492 -0.0029,-0.238281 -0.0088,-0.40332 -0.0049,-0.164063 -0.01367,-0.3125 -0.02441,-0.44336 h 0.534179 z"
       id="path19"
       inkscape:connector-curvature="0"
       style="fill:#7c7975" /><path
       d="m 67.454102,43.000687 c 0,0.115234 -0.04102,0.20996 -0.123047,0.284179 -0.08203,0.07422 -0.172852,0.111328 -0.271485,0.111328 -0.09863,0 -0.188476,-0.03711 -0.271484,-0.111328 -0.08203,-0.07422 -0.123047,-0.168945 -0.123047,-0.284179 0,-0.114258 0.04102,-0.208985 0.123047,-0.283204 0.08301,-0.07422 0.172851,-0.111328 0.271484,-0.111328 0.09863,0 0.189453,0.03711 0.271485,0.111328 0.08203,0.07422 0.123047,0.168946 0.123047,0.283204 z m -0.115235,5.327148 h -0.558594 v -3.84668 h 0.558594 v 3.84668 z"
       id="path21"
       inkscape:connector-curvature="0"
       style="fill:#7c7975" /><path
       d="m 71.382812,44.875687 -2.300781,2.966796 h 2.383789 v 0.485352 h -3.124023 v -0.394531 l 2.292969,-2.984375 h -2.177735 v -0.467774 h 2.925782 v 0.394532 z"
       id="path23"
       inkscape:connector-curvature="0"
       style="fill:#7c7975" /><path
       d="m 74.884766,45.837601 c 0,-0.331055 -0.08789,-0.579102 -0.263672,-0.742188 -0.174805,-0.163086 -0.429688,-0.245117 -0.763672,-0.245117 -0.230469,0 -0.444336,0.04102 -0.641602,0.124023 -0.197265,0.08203 -0.364258,0.191407 -0.500976,0.328125 l -0.3125,-0.36914 c 0.158203,-0.15918 0.368164,-0.291016 0.628906,-0.394531 0.259765,-0.104493 0.554687,-0.15625 0.882812,-0.15625 0.208985,0 0.403321,0.02832 0.583985,0.08594 0.180664,0.05762 0.339843,0.143555 0.476562,0.258789 0.137695,0.115235 0.244141,0.260742 0.321289,0.435547 0.07617,0.175781 0.114258,0.380859 0.114258,0.617188 v 1.68457 c 0,0.148437 0.0059,0.301758 0.0166,0.460937 0.01074,0.158203 0.02734,0.292969 0.0498,0.402344 h -0.501953 c -0.0166,-0.09277 -0.03027,-0.194336 -0.04102,-0.303711 -0.01074,-0.110351 -0.0166,-0.216797 -0.0166,-0.321289 h -0.01563 c -0.175781,0.257813 -0.374023,0.442383 -0.59668,0.554688 -0.221679,0.112304 -0.489257,0.168945 -0.800781,0.168945 -0.148437,0 -0.300781,-0.02051 -0.457031,-0.06152 -0.15625,-0.04102 -0.297852,-0.108399 -0.426758,-0.202149 -0.128906,-0.09375 -0.236328,-0.214844 -0.321289,-0.363281 -0.08496,-0.148437 -0.126953,-0.330078 -0.126953,-0.543945 0,-0.296875 0.07519,-0.532227 0.225586,-0.705078 0.151367,-0.173829 0.352539,-0.302735 0.604492,-0.387696 0.251953,-0.08594 0.541016,-0.140625 0.867188,-0.165039 0.326171,-0.02441 0.665039,-0.03711 1.015625,-0.03711 v -0.123046 z m -0.165039,0.566406 c -0.229493,0 -0.460938,0.0098 -0.694336,0.0293 -0.232422,0.01855 -0.44336,0.05762 -0.632813,0.115234 -0.189453,0.05762 -0.34375,0.140625 -0.464844,0.25 -0.120117,0.110352 -0.180664,0.254883 -0.180664,0.435547 0,0.137695 0.02637,0.25293 0.07813,0.345703 0.05176,0.09277 0.122071,0.168946 0.209961,0.225586 0.08691,0.05762 0.184571,0.09863 0.291992,0.124024 0.106446,0.02441 0.214844,0.03711 0.324219,0.03711 0.197266,0 0.373047,-0.03418 0.526367,-0.103516 0.153321,-0.06836 0.282227,-0.161132 0.385743,-0.279297 0.104492,-0.117187 0.183593,-0.252929 0.239257,-0.40625 0.05469,-0.15332 0.08203,-0.315429 0.08203,-0.485351 V 46.404011 H 74.71973 z"
       id="path25"
       inkscape:connector-curvature="0"
       style="fill:#7c7975" /><path
       d="m 78.501953,44.948929 h -1.084961 v 2.24414 c 0,0.142578 0.0127,0.260743 0.04102,0.353516 0.02734,0.09375 0.06641,0.166016 0.11914,0.217773 0.05176,0.05273 0.113282,0.08789 0.184571,0.107422 0.07129,0.01953 0.148437,0.02832 0.230468,0.02832 0.07617,0 0.157227,-0.01074 0.242188,-0.03223 0.08496,-0.02246 0.166016,-0.05273 0.242187,-0.09082 l 0.02539,0.485351 c -0.09863,0.03809 -0.202148,0.06641 -0.308594,0.08594 -0.106445,0.01953 -0.223633,0.0293 -0.349609,0.0293 -0.103516,0 -0.213867,-0.01465 -0.328125,-0.04199 -0.115235,-0.02734 -0.222656,-0.0791 -0.321289,-0.15625 -0.09863,-0.07617 -0.179688,-0.180664 -0.242188,-0.311523 -0.06348,-0.131836 -0.09473,-0.304687 -0.09473,-0.518555 v -2.40039 h -0.796875 v -0.467774 h 0.796875 v -1.084961 h 0.55957 v 1.084961 h 1.084961 v 0.467774 z"
       id="path27"
       inkscape:connector-curvature="0"
       style="fill:#7c7975" /><path
       d="m 80.054687,43.000687 c 0,0.115234 -0.04102,0.20996 -0.123046,0.284179 -0.08203,0.07422 -0.172852,0.111328 -0.271485,0.111328 -0.09863,0 -0.188476,-0.03711 -0.271484,-0.111328 -0.08203,-0.07422 -0.123047,-0.168945 -0.123047,-0.284179 0,-0.114258 0.04102,-0.208985 0.123047,-0.283204 0.08301,-0.07422 0.172851,-0.111328 0.271484,-0.111328 0.09863,0 0.189453,0.03711 0.271485,0.111328 0.08203,0.07422 0.123046,0.168946 0.123046,0.283204 z m -0.115234,5.327148 h -0.558594 v -3.84668 h 0.558594 v 3.84668 z"
       id="path29"
       inkscape:connector-curvature="0"
       style="fill:#7c7975" /><path
       d="m 85.250977,46.404007 c 0,0.291016 -0.05078,0.55957 -0.152344,0.805664 -0.101563,0.24707 -0.242188,0.460938 -0.423828,0.641602 -0.180664,0.180664 -0.396485,0.322265 -0.648438,0.422851 -0.252929,0.101563 -0.529297,0.152344 -0.831054,0.152344 -0.295899,0 -0.569336,-0.05078 -0.82129,-0.152344 -0.252929,-0.100586 -0.46875,-0.242187 -0.649414,-0.422851 -0.18164,-0.180664 -0.322265,-0.394532 -0.423828,-0.641602 -0.101562,-0.246094 -0.152344,-0.514648 -0.152344,-0.805664 0,-0.290039 0.05078,-0.558594 0.152344,-0.805664 0.101563,-0.246094 0.242188,-0.459961 0.423828,-0.640625 0.180664,-0.180664 0.396485,-0.322266 0.649414,-0.423828 0.251954,-0.100586 0.525391,-0.151367 0.82129,-0.151367 0.301757,0 0.578125,0.05078 0.831054,0.151367 0.251953,0.101562 0.467774,0.243164 0.648438,0.423828 0.18164,0.180664 0.322265,0.394531 0.423828,0.640625 0.101562,0.24707 0.152344,0.515625 0.152344,0.805664 z m -0.591797,0 c 0,-0.213867 -0.03418,-0.415039 -0.103516,-0.603516 -0.06836,-0.189453 -0.165039,-0.353515 -0.291015,-0.493164 -0.126954,-0.140625 -0.280274,-0.250976 -0.460938,-0.333008 -0.180664,-0.08301 -0.383789,-0.124023 -0.608398,-0.124023 -0.22461,0 -0.425782,0.04102 -0.603516,0.124023 -0.178711,0.08203 -0.330078,0.192383 -0.457031,0.333008 -0.125977,0.139649 -0.222656,0.303711 -0.291016,0.493164 -0.06934,0.188477 -0.103515,0.389649 -0.103515,0.603516 0,0.213867 0.03418,0.415039 0.103515,0.604492 0.06836,0.189453 0.165039,0.353516 0.291016,0.493164 0.126953,0.139649 0.27832,0.249024 0.457031,0.329102 0.177734,0.0791 0.378906,0.119141 0.603516,0.119141 0.224609,0 0.427734,-0.04004 0.608398,-0.119141 0.180664,-0.08008 0.333984,-0.189453 0.460938,-0.329102 0.125976,-0.139648 0.222656,-0.303711 0.291015,-0.493164 0.06934,-0.189453 0.103516,-0.390625 0.103516,-0.604492 z"
       id="path31"
       inkscape:connector-curvature="0"
       style="fill:#7c7975" /><path
       d="m 86.952148,44.481155 c 0.01074,0.103516 0.01953,0.21875 0.02441,0.344727 0.0059,0.125977 0.0088,0.230469 0.0088,0.3125 h 0.0166 c 0.109375,-0.224609 0.28711,-0.407227 0.53418,-0.546875 0.246094,-0.139648 0.506836,-0.208984 0.780273,-0.208984 0.488281,0 0.853516,0.144531 1.097656,0.435546 0.244141,0.29004 0.366211,0.673829 0.366211,1.150391 v 2.359375 h -0.55957 v -2.128906 c 0,-0.203125 -0.0166,-0.386719 -0.04883,-0.550781 -0.0332,-0.164063 -0.08984,-0.305664 -0.168945,-0.423828 -0.0791,-0.117188 -0.186524,-0.208985 -0.320313,-0.275391 -0.134765,-0.06543 -0.302734,-0.09863 -0.505859,-0.09863 -0.147461,0 -0.291992,0.03027 -0.431641,0.09082 -0.139648,0.06055 -0.263672,0.152344 -0.374023,0.275391 -0.109375,0.123047 -0.197266,0.279297 -0.262696,0.46875 -0.06543,0.188477 -0.09863,0.412109 -0.09863,0.669922 v 1.972656 h -0.558594 v -3 c 0,-0.104492 -0.0029,-0.238281 -0.0088,-0.40332 -0.0049,-0.164063 -0.01367,-0.3125 -0.02441,-0.44336 h 0.534179 z"
       id="path33"
       inkscape:connector-curvature="0"
       style="fill:#7c7975" /><path
       d="m 93.273437,45.393265 c -0.08301,-0.15918 -0.207031,-0.289063 -0.374023,-0.390625 -0.167969,-0.101563 -0.358398,-0.152344 -0.571289,-0.152344 -0.09863,0 -0.198242,0.01172 -0.296875,0.0332 -0.09863,0.02246 -0.185547,0.05762 -0.262695,0.106445 -0.07715,0.0498 -0.138672,0.113282 -0.184571,0.189453 -0.04687,0.07715 -0.07031,0.166993 -0.07031,0.271485 0,0.180664 0.07422,0.319336 0.22168,0.415039 0.148437,0.0957 0.380859,0.176758 0.699218,0.242187 0.455078,0.09375 0.790039,0.229493 1.006836,0.407227 0.216797,0.177734 0.325196,0.417969 0.325196,0.71875 0,0.219727 -0.04297,0.404297 -0.12793,0.555664 -0.08496,0.150391 -0.196289,0.273438 -0.333008,0.369141 -0.136719,0.09668 -0.291992,0.165039 -0.463867,0.206055 -0.172852,0.04102 -0.34668,0.06152 -0.522461,0.06152 -0.290039,0 -0.572266,-0.06055 -0.84668,-0.180664 -0.274414,-0.121094 -0.499023,-0.30957 -0.673828,-0.567383 l 0.44336,-0.329102 c 0.09863,0.169922 0.24414,0.3125 0.436523,0.427735 0.191406,0.115234 0.402344,0.172851 0.632813,0.172851 0.120117,0 0.235351,-0.01074 0.344726,-0.0332 0.109375,-0.02148 0.206055,-0.06055 0.288086,-0.115234 0.08203,-0.05469 0.147461,-0.124023 0.197266,-0.208984 0.04883,-0.08496 0.07422,-0.19043 0.07422,-0.316407 0,-0.203125 -0.09766,-0.355468 -0.291992,-0.457031 -0.194336,-0.100586 -0.475586,-0.195312 -0.842773,-0.283203 -0.115235,-0.02734 -0.237305,-0.06152 -0.366211,-0.102539 -0.128906,-0.04102 -0.248047,-0.101563 -0.357422,-0.180664 -0.109375,-0.08008 -0.200195,-0.179688 -0.271484,-0.300781 -0.07129,-0.120118 -0.106446,-0.270508 -0.106446,-0.452149 0,-0.197265 0.03809,-0.365234 0.115235,-0.504883 0.07617,-0.139648 0.179687,-0.254882 0.308593,-0.345703 0.12793,-0.08984 0.275391,-0.157226 0.439454,-0.201172 0.164062,-0.04395 0.333984,-0.06543 0.509765,-0.06543 0.268555,0 0.52832,0.05957 0.780274,0.180664 0.251953,0.120117 0.441406,0.290039 0.567382,0.509765 l -0.426758,0.320313 z"
       id="path35"
       inkscape:connector-curvature="0"
       style="fill:#7c7975" /></g><path
     d="m 13.499661,2.6050231 h 0.228285 l 0.228285,0.01644 0.179371,0.032616 0.260901,0.065203 0.668531,0.3098095 1.059876,0.6685342 c 0,0 0.326114,0.603311 0.358724,0.668535 0.04891,0.04891 0.04891,0.472879 0.04891,0.472879 l -0.130433,0.146728 -0.782675,-0.114142 -1.924078,-1.25554 -0.195662,-1.0109544 z"
     id="path37"
     inkscape:connector-curvature="0"
     style="fill:#edd26b" /><polygon
     points="0.7219719,361.81287 0.6775383,361.88507 0.4498165,361.62958 0.2776366,360.95752 0.2942991,360.76868 0.316516,360.6687 0.3609495,360.65204 0.3387327,360.91864 0.377612,361.15747 0.5109127,361.43518 "
     id="polygon39"
     style="fill:#edd26b"
     transform="translate(0,-62)" /><polygon
     points="0.1276734,362.65155 0.5386837,363.29028 -0.1500362,363.55133 -0.1833614,363.10144 -7.31e-05,362.68488 "
     id="polygon41"
     style="fill:#4d6335"
     transform="translate(0,-62)" /><polyline
     points="0.1054566,363.8012695 0.0554689,363.9845581 0.1832153,363.8956909 0.4553708,362.7404175   0.7053093,361.918396 0.6553216,361.8239746 0.0721314,362.1849976 "
     id="polyline43"
     style="fill:#4d6335"
     transform="translate(0,-62)" /><polygon
     points="1.8439188,49.144005 3.5657184,49.138451 4.2377758,47.483303 4.1933422,47.466637 3.0769496,48.683003 "
     id="polygon45"
     style="fill:#51777b"
     transform="matrix(2.9357485,0,0,2.9357485,2.2163212,-121.22205)" /><polygon
     points="6.5983076,47.33889 6.7316079,47.27224 6.6260786,47.549946 5.92625,47.927639 4.2044506,47.494408 4.2822094,47.361107 "
     id="polygon47"
     style="fill:#d03e28"
     transform="matrix(2.9357485,0,0,2.9357485,2.2163212,-121.22205)" /><polygon
     points="5.9318047,43.189911 5.2764096,42.784454 4.8209658,42.973293 4.8598452,43.05661 6.1039839,43.378757 "
     id="polygon49"
     style="fill:#d03e28"
     transform="matrix(2.9357485,0,0,2.9357485,2.2163212,-121.22205)" /><polygon
     points="2.0383155,49.199551 1.9105691,48.760769 2.4715426,48.938499 2.6048431,49.371727 "
     id="polygon51"
     style="fill:#51777b"
     transform="matrix(2.9357485,0,0,2.9357485,2.2163212,-121.22205)" /><g
     id="g53"
     transform="matrix(2.9357485,0,0,2.9357485,2.2163212,-121.22205)"><path
       d="m 12.596834,44.511806 c 0.01111,0.04443 0.01666,0.08332 0.01666,0.105526 0,0.03333 -0.01111,0.05555 -0.02777,0.06665 -0.01666,0.01112 -0.04443,0.02222 -0.07776,0.03333 -0.111084,0.03332 -0.205504,0.08887 -0.277709,0.183296 -0.07221,0.08886 -0.138855,0.21661 -0.205505,0.372128 l -1.316345,3.093685 c -0.05554,0 -0.116638,-0.01111 -0.183288,-0.02777 -0.06665,-0.01666 -0.111084,-0.04443 -0.127747,-0.08332 L 9.0088262,45.228294 c -0.038879,-0.08331 -0.077758,-0.155513 -0.111084,-0.211055 -0.033325,-0.05554 -0.072205,-0.09998 -0.111084,-0.138855 -0.038878,-0.03888 -0.083313,-0.06665 -0.1332998,-0.08887 -0.049988,-0.02221 -0.1055298,-0.03888 -0.1777344,-0.06109 -0.049987,-0.01667 -0.077759,-0.04999 -0.077759,-0.10553 0,-0.03333 0.011109,-0.07221 0.027772,-0.116642 h 1.57739 c 0.0056,0.02222 0.01111,0.04443 0.01666,0.0611 0.0056,0.01666 0.0056,0.03333 0.0056,0.04443 0,0.0611 -0.027771,0.09442 -0.083313,0.09998 -0.088868,0.01666 -0.1610708,0.04443 -0.2166128,0.0722 -0.055543,0.03333 -0.083313,0.07776 -0.083313,0.149971 0,0.03333 0.011107,0.08331 0.038878,0.14996 l 1.0108628,2.354977 0.905333,-2.127255 c 0.05554,-0.133301 0.08331,-0.23883 0.08331,-0.316593 0,-0.07221 -0.02777,-0.127739 -0.08331,-0.166618 -0.05554,-0.03889 -0.144408,-0.07777 -0.266601,-0.111092 -0.04999,-0.01111 -0.0722,-0.04998 -0.0722,-0.11108 0,-0.02222 0.0056,-0.05555 0.01111,-0.09442 h 1.327451 l 0,0 z"
       id="path55"
       inkscape:connector-curvature="0"
       style="fill:#6e6b60" /><path
       d="m 14.501924,48.405296 c -0.299927,0 -0.560974,-0.04998 -0.783141,-0.155521 -0.222168,-0.105526 -0.411011,-0.238827 -0.560975,-0.411007 -0.149962,-0.166626 -0.261046,-0.361019 -0.338806,-0.577637 -0.0722,-0.21661 -0.111083,-0.433227 -0.111083,-0.655388 0,-0.327701 0.05554,-0.622074 0.161071,-0.888675 0.105529,-0.266594 0.244384,-0.49432 0.41101,-0.677613 0.166626,-0.188835 0.355468,-0.333252 0.566527,-0.433227 0.21106,-0.09998 0.422117,-0.14996 0.627624,-0.14996 0.422119,0 0.744261,0.111081 0.966429,0.338807 0.222168,0.227722 0.338806,0.560974 0.344361,0.999755 0,0.06665 0,0.133301 -0.0056,0.199952 -0.0056,0.06665 -0.01111,0.138855 -0.02777,0.211059 h -2.449399 c 0,0.116635 0.0056,0.238827 0.02221,0.361023 0.01111,0.122189 0.03888,0.244381 0.07776,0.361015 0.03888,0.116642 0.09442,0.227726 0.161071,0.333252 0.06665,0.10553 0.161072,0.194401 0.272155,0.272156 0.111084,0.07775 0.244385,0.138855 0.405455,0.188847 0.155517,0.04443 0.344362,0.06665 0.56653,0.06665 0.1333,0 0.277709,-0.01111 0.444334,-0.02777 0.161072,-0.02222 0.311035,-0.04998 0.444336,-0.08331 l 0.01111,0.01666 c -0.0722,0.161072 -0.161071,0.288818 -0.272154,0.383236 -0.10553,0.09442 -0.216614,0.166626 -0.327698,0.211055 -0.111084,0.04999 -0.222168,0.07776 -0.327696,0.08887 -0.111083,0.02222 -0.205505,0.02777 -0.277708,0.02777 m 0.660948,-2.604919 c 0,-0.07776 -0.01111,-0.166626 -0.02777,-0.27771 -0.02222,-0.105526 -0.0611,-0.211056 -0.116639,-0.311031 -0.06109,-0.09998 -0.144408,-0.183293 -0.255493,-0.255497 -0.111083,-0.0722 -0.255493,-0.10553 -0.433226,-0.10553 -0.105529,0 -0.205505,0.01667 -0.311035,0.04443 -0.09998,0.02777 -0.177733,0.0611 -0.227722,0.09998 -0.06665,0.04443 -0.127747,0.10553 -0.177734,0.177738 -0.04999,0.07221 -0.09442,0.14996 -0.1333,0.233277 -0.03888,0.08331 -0.06665,0.161068 -0.08331,0.244384 -0.02222,0.07776 -0.03332,0.14996 -0.03332,0.211056 l 1.799558,-0.0611 z"
       id="path57"
       inkscape:connector-curvature="0"
       style="fill:#6e6b60" /><path
       d="m 17.05685,45.21719 c 0,-0.04998 -0.0056,-0.09443 -0.01111,-0.144409 -0.0056,-0.04444 -0.01666,-0.07776 -0.03332,-0.09442 -0.02222,-0.02222 -0.08331,-0.04443 -0.177737,-0.0611 -0.09442,-0.01666 -0.227722,-0.03332 -0.399902,-0.04443 -0.0056,-0.01667 -0.0056,-0.02777 -0.0056,-0.03889 0,-0.0111 0,-0.02221 0,-0.03887 0,-0.04998 0.01666,-0.07776 0.04443,-0.08886 0.261049,-0.0722 0.466552,-0.1333 0.616516,-0.172187 0.149963,-0.03888 0.261047,-0.0722 0.338806,-0.09441 0.0722,-0.02222 0.122192,-0.03333 0.138855,-0.03333 0.01666,-0.0056 0.02777,-0.0056 0.03333,-0.0056 0.03333,0 0.05554,0.01667 0.07221,0.04444 0.01111,0.03333 0.02222,0.06109 0.02222,0.09441 v 0.472107 c 0.06665,-0.05554 0.138854,-0.122189 0.227723,-0.188839 0.08331,-0.06665 0.177734,-0.133301 0.27771,-0.188847 0.09997,-0.0611 0.199951,-0.105526 0.305479,-0.144405 0.105529,-0.03888 0.211059,-0.05555 0.311035,-0.05555 0.194399,0 0.333252,0.03332 0.422119,0.09442 0.08887,0.0611 0.133299,0.155518 0.133299,0.272152 0,0.04999 -0.0056,0.111092 -0.02221,0.177742 -0.01666,0.07221 -0.04443,0.144405 -0.08887,0.222164 -0.127747,-0.05554 -0.238831,-0.09442 -0.344361,-0.122196 -0.105528,-0.02776 -0.222166,-0.03888 -0.355468,-0.03888 -0.138855,0 -0.283265,0.01112 -0.433226,0.03888 -0.149963,0.02777 -0.294373,0.05555 -0.427675,0.08887 V 47.5555 c 0,0.09442 0.0056,0.172176 0.02222,0.227722 0.01111,0.05555 0.04443,0.09998 0.09442,0.133301 0.04999,0.03333 0.116638,0.0611 0.205505,0.08331 0.08887,0.02222 0.21106,0.04444 0.361023,0.07221 0.03332,0.0056 0.05554,0.02222 0.06665,0.04444 0.01111,0.02221 0.01111,0.04998 0.01111,0.07776 0,0.01666 -0.0056,0.03888 -0.01111,0.06665 -0.0056,0.01111 -0.0056,0.01666 -0.0056,0.02777 h -2.005064 c -0.0056,-0.01111 -0.0056,-0.02222 -0.0056,-0.03332 v -0.02777 c 0,-0.04998 0.0056,-0.08887 0.02222,-0.116642 0.01666,-0.02221 0.03332,-0.03888 0.04999,-0.03888 0.133299,-0.02221 0.23883,-0.04443 0.311035,-0.07221 0.07776,-0.02777 0.133299,-0.06665 0.172178,-0.11108 0.03888,-0.04999 0.0611,-0.10553 0.06665,-0.183292 0.01111,-0.07221 0.01111,-0.166619 0.01111,-0.27771 l -0.01111,-2.21056 0,0 z"
       id="path59"
       inkscape:connector-curvature="0"
       style="fill:#6e6b60" /><path
       d="m 21.905662,44.539577 c 0.0611,0.02777 0.111083,0.06665 0.149964,0.122197 0.03888,0.05553 0.05554,0.122184 0.05554,0.199951 0,0.04443 -0.0056,0.10553 -0.02221,0.183285 -0.01666,0.07776 -0.05554,0.149967 -0.122194,0.222171 -0.116638,-0.105529 -0.255493,-0.1944 -0.416563,-0.255497 -0.16107,-0.0611 -0.333252,-0.09442 -0.510988,-0.09442 -0.205504,0 -0.361023,0.02777 -0.477662,0.08887 -0.116638,0.05555 -0.172178,0.166626 -0.172178,0.32214 0,0.122196 0.04443,0.222172 0.133299,0.311039 0.08887,0.08886 0.205505,0.17218 0.344362,0.249935 0.138853,0.07776 0.288817,0.155522 0.444336,0.233277 0.155516,0.07776 0.305479,0.166629 0.444334,0.261051 0.138855,0.09442 0.255494,0.211056 0.344361,0.338806 0.08887,0.127747 0.133301,0.283268 0.133301,0.466553 0,0.15551 -0.01666,0.288818 -0.05554,0.399902 -0.03888,0.11108 -0.06665,0.183285 -0.08887,0.21661 -0.0722,0.122196 -0.155517,0.227722 -0.244384,0.305481 -0.08887,0.08332 -0.177735,0.144413 -0.27771,0.194397 -0.09997,0.04999 -0.199952,0.08332 -0.311036,0.09998 -0.111082,0.02222 -0.222166,0.02777 -0.333252,0.02777 -0.0722,0 -0.149963,-0.0056 -0.233276,-0.01667 -0.07776,-0.0111 -0.161072,-0.02221 -0.238829,-0.04443 -0.07776,-0.02221 -0.155517,-0.04443 -0.227722,-0.0722 -0.0722,-0.02777 -0.138855,-0.0611 -0.194397,-0.09442 -0.09442,-0.0611 -0.155516,-0.122188 -0.188841,-0.199951 -0.03333,-0.0722 -0.05554,-0.144405 -0.05554,-0.205505 0,-0.05554 0.01111,-0.116635 0.02777,-0.172177 0.01666,-0.05555 0.03888,-0.105529 0.0611,-0.149971 0.03333,-0.05553 0.06109,-0.105526 0.09442,-0.144405 0.211059,0.21661 0.405456,0.377686 0.594299,0.483212 0.188845,0.105537 0.388796,0.161075 0.599854,0.161075 0.183288,0 0.333252,-0.04443 0.44989,-0.12775 0.116638,-0.08331 0.17218,-0.211056 0.17218,-0.377682 0,-0.127743 -0.04443,-0.233276 -0.138855,-0.327694 -0.09442,-0.09442 -0.205505,-0.177738 -0.34436,-0.261047 -0.138855,-0.07776 -0.288819,-0.161072 -0.449891,-0.238831 -0.161071,-0.07775 -0.311035,-0.166626 -0.444335,-0.266601 -0.138854,-0.09998 -0.255492,-0.21661 -0.344361,-0.344357 -0.09442,-0.12775 -0.138855,-0.288822 -0.138855,-0.472107 0,-0.183292 0.04443,-0.344364 0.127745,-0.483219 0.08332,-0.144405 0.194397,-0.261051 0.327698,-0.361027 0.1333,-0.09441 0.28882,-0.172176 0.460998,-0.22216 0.17218,-0.04999 0.344361,-0.07776 0.516539,-0.07776 0.205507,0.01666 0.383244,0.04998 0.549869,0.122188"
       id="path61"
       inkscape:connector-curvature="0"
       style="fill:#6e6b60" /><path
       d="m 25.460344,48.405296 c -0.10553,0 -0.188843,-0.01666 -0.255493,-0.04443 -0.06665,-0.03333 -0.116638,-0.0722 -0.155516,-0.12775 -0.03888,-0.05554 -0.0611,-0.122192 -0.07776,-0.199951 -0.01111,-0.07775 -0.02222,-0.161072 -0.02222,-0.255493 -0.06665,0.122192 -0.149964,0.222168 -0.249939,0.311039 -0.08887,0.07775 -0.194397,0.144405 -0.322144,0.211056 -0.127745,0.0611 -0.283264,0.09442 -0.455442,0.09442 -0.161072,0 -0.311035,-0.02222 -0.438782,-0.0611 -0.127747,-0.03888 -0.238829,-0.09998 -0.333252,-0.177731 -0.09442,-0.07776 -0.161072,-0.166626 -0.21106,-0.277714 -0.04998,-0.105529 -0.0722,-0.227718 -0.0722,-0.361019 0,-0.199951 0.05554,-0.383243 0.161072,-0.544315 0.105529,-0.161068 0.249939,-0.299919 0.438779,-0.416561 0.183289,-0.111084 0.405457,-0.199951 0.655396,-0.261051 0.249937,-0.0611 0.522093,-0.09442 0.816465,-0.09442 v -0.649837 c 0,-0.227726 -0.06665,-0.399903 -0.199951,-0.510987 -0.133299,-0.111087 -0.316589,-0.166626 -0.55542,-0.166626 -0.205505,0 -0.355467,0.03888 -0.444334,0.122189 -0.08887,0.07776 -0.133299,0.194397 -0.133299,0.338814 0,0.02221 0,0.04998 0,0.08331 0,0.03332 0.0056,0.06665 0.01111,0.08887 l -0.04999,0.01111 c -0.01666,0.0055 -0.03333,0.0055 -0.04999,0.0055 h -0.0611 c -0.02221,0 -0.06109,-0.0055 -0.111082,-0.01111 -0.04999,-0.0056 -0.09442,-0.01666 -0.144409,-0.03888 -0.04999,-0.02222 -0.08887,-0.04999 -0.127747,-0.08887 -0.03333,-0.03888 -0.05554,-0.09443 -0.05554,-0.166626 0,-0.09998 0.05554,-0.199951 0.161072,-0.288822 0.10553,-0.09443 0.238829,-0.172181 0.394348,-0.244385 0.155518,-0.0722 0.322142,-0.127747 0.499878,-0.172177 0.177734,-0.04443 0.338804,-0.06665 0.477661,-0.06665 0.188841,0 0.34436,0.03333 0.472105,0.09442 0.127747,0.0611 0.227722,0.144406 0.311035,0.249936 0.07776,0.105529 0.133301,0.216617 0.166626,0.344368 0.03332,0.127739 0.04999,0.255485 0.04999,0.383236 v 1.960624 c 0,0.166626 0.02777,0.277718 0.07776,0.344368 0.04999,0.0611 0.127746,0.09442 0.238828,0.09442 0.05554,0 0.122195,-0.0056 0.188843,-0.01667 0.06665,-0.0111 0.116638,-0.02777 0.149964,-0.04443 l 0.01111,0.01666 c -0.01666,0.04999 -0.04443,0.111088 -0.07776,0.17218 -0.03888,0.0611 -0.08887,0.116642 -0.149963,0.172184 -0.0611,0.05554 -0.133301,0.09998 -0.22217,0.133301 -0.07776,0.03887 -0.18329,0.05554 -0.305483,0.05554 m -0.516538,-1.760677 c -0.03333,-0.0056 -0.07221,-0.0056 -0.10553,-0.0056 -0.03888,0 -0.07776,0 -0.122193,0 -0.105529,0 -0.211059,0.0056 -0.322143,0.01667 -0.111082,0.01111 -0.222166,0.02777 -0.322142,0.04443 -0.105529,0.02222 -0.194397,0.04443 -0.27771,0.07776 -0.08331,0.03332 -0.149963,0.0722 -0.194397,0.116642 -0.04443,0.03888 -0.07776,0.09443 -0.105528,0.161076 -0.02777,0.06665 -0.03888,0.138851 -0.03888,0.21661 0,0.07776 0.01666,0.149959 0.04443,0.222168 0.02777,0.0722 0.07776,0.133293 0.138857,0.188839 0.06665,0.05555 0.149963,0.09443 0.249939,0.12775 0.09997,0.03332 0.22772,0.04998 0.377683,0.04998 0.116639,0 0.233277,-0.01666 0.355467,-0.04443 0.122193,-0.02777 0.227724,-0.0722 0.327698,-0.127747 l -0.0056,-1.044182 0,0 z"
       id="path63"
       inkscape:connector-curvature="0"
       style="fill:#6e6b60" /><path
       d="m 27.420973,42.945526 c 0,-0.04999 -0.0056,-0.09442 -0.01111,-0.144413 -0.0056,-0.04443 -0.02222,-0.07776 -0.03332,-0.09442 -0.02222,-0.02221 -0.08331,-0.04443 -0.177734,-0.0611 -0.09442,-0.01666 -0.227724,-0.03333 -0.399903,-0.04443 -0.0056,-0.01666 -0.0056,-0.02777 -0.0056,-0.03888 0,-0.0111 0,-0.02222 0,-0.03888 0,-0.04999 0.01111,-0.07776 0.03888,-0.08887 0.272154,-0.07221 0.477661,-0.133301 0.627622,-0.17218 0.149964,-0.03888 0.261048,-0.0722 0.333252,-0.08887 0.0722,-0.01666 0.116639,-0.02777 0.127747,-0.03333 0.01666,-0.0055 0.02221,-0.0055 0.02777,-0.0055 0.03333,0 0.05554,0.01666 0.07221,0.04443 0.01666,0.03332 0.02222,0.0611 0.02222,0.09442 v 5.287586 c 0,0.09443 0.0056,0.172188 0.02221,0.227726 0.01666,0.05555 0.04443,0.09998 0.08887,0.133301 0.04443,0.03332 0.111081,0.0611 0.199952,0.08332 0.08886,0.02221 0.211059,0.04443 0.361022,0.0722 0.03332,0.0056 0.05554,0.02221 0.06665,0.04443 0.01111,0.02221 0.01111,0.04998 0.01111,0.07775 0,0.01667 -0.0056,0.03888 -0.01111,0.06665 -0.0056,0.01112 -0.0056,0.01667 -0.0056,0.02778 h -1.9884 c -0.0056,-0.01111 -0.0056,-0.02222 -0.0056,-0.03333 v -0.02777 c 0,-0.04998 0.0056,-0.08887 0.02222,-0.116635 0.01666,-0.02222 0.03333,-0.03888 0.04999,-0.03888 0.1333,-0.02221 0.238828,-0.04443 0.311037,-0.0722 0.07776,-0.02776 0.133299,-0.06665 0.172178,-0.11108 0.03888,-0.04998 0.0611,-0.10553 0.06665,-0.183285 0.01111,-0.0722 0.01666,-0.16663 0.01666,-0.277717 l 2e-6,-4.487778 0,0 z"
       id="path65"
       inkscape:connector-curvature="0"
       style="fill:#6e6b60" /><path
       d="m 6.2095141,43.450958 0,0 0,0 C 5.9373583,43.139919 5.4708061,42.98996 4.898725,42.98996 c -0.022217,0 -0.044434,0 -0.072205,0 l 0,0 0,0 c 0.099976,0.233276 0.166626,0.499878 0.1999512,0.805359 0.083312,0.699829 -0.00555,1.560722 -0.294373,2.443847 -0.049987,0.14996 -0.099975,0.288811 -0.1555171,0.427666 -0.011108,0.02222 -0.016663,0.04444 -0.027771,0.0611 -0.1055298,0.255497 -0.2166133,0.494328 -0.3443594,0.72205 l 0,0 c 0.5498648,0.188839 1.0608501,0.28326 1.4829693,0.28326 0.4998775,0 0.8775625,-0.138851 1.044188,-0.422115 0.00555,-0.01111 0.011108,-0.02777 0.022217,-0.03888 l 0,0 0,0 C 7.1204014,46.428001 7.1592808,45.467133 6.8538003,44.595123 6.7149453,44.189667 6.498332,43.800869 6.2095141,43.450958 l 0,0 0,0 0,0"
       id="path67"
       inkscape:connector-curvature="0"
       style="fill:#d03e28" /><path
       d="m 0.4275998,43.617584 0,0 0,0 m 2.9548303,-1.482975 c -0.2110593,0 -0.4221187,0.01667 -0.6276238,0.05555 -0.1221922,0.02222 -0.2388303,0.04443 -0.3554683,0.07776 -0.7998035,0.222172 -1.4885235,0.699829 -1.9717383,1.344116 l -0.005554,0.0056 0,0 c -0.005554,0.01111 -0.0222167,0.03332 -0.027771,0.04443 -0.0610962,0.09997 -0.0888671,0.21661 -0.0833129,0.344356 0,0.288823 0.1444091,0.638733 0.3999018,0.999756 l 0,0 0,0 0,0 0,0 C 0.983019,44.70625 1.3107163,44.417428 1.6884016,44.150827 1.8605813,44.028642 2.0438699,43.912 2.2327124,43.800916 c 0.1943965,-0.11108 0.3943474,-0.21661 0.5887444,-0.305477 0.2055054,-0.09443 0.4054561,-0.17218 0.605407,-0.238831 0.4998772,-0.17218 0.9775376,-0.261051 1.405211,-0.272156 l 0,0 0,0 C 4.6654486,42.590057 4.4099559,42.312347 4.0767045,42.201267 4.0211625,42.184601 3.9656205,42.167942 3.9100788,42.16238 l 0,0 0,0 0,0 0,0 C 3.7323444,42.14572 3.5601642,42.13461 3.3824301,42.13461"
       id="path69"
       inkscape:connector-curvature="0"
       style="fill:#edd26b" /><path
       d="m 0.7108635,45.00613 0,0 0,0 0,0 c -0.5332024,0.583187 -0.8442372,1.194149 -0.8442372,1.710694 0,0.01666 0,0.03332 0,0.04998 0,0.0111 0,0.02777 0,0.03888 0.005554,0.08887 0.0222168,0.172176 0.0499877,0.249943 0.0055542,0.02221 0.0166626,0.04443 0.0222168,0.0611 0.3276973,0.855343 0.9664295,1.560726 1.7773414,1.971733 0.016663,0.0056 0.061096,0.02222 0.094421,0.03888 0.011108,0.0056 0.022217,0.0056 0.033325,0.01111 l 0,0 c 0.094421,0.03332 0.1943967,0.04443 0.2999263,0.04443 0.4498899,0 0.9442127,-0.294376 1.3941026,-0.783142 l 0,0 c 0.2388307,-0.261043 0.4721071,-0.583191 0.677611,-0.94976 -0.1666255,-0.0611 -0.3388054,-0.122196 -0.5165396,-0.199951 l -0.055542,-0.02222 c 0,0 -0.5498652,-0.261047 -0.8331289,-0.422119 C 2.3437953,46.533531 1.927231,46.239155 1.5717628,45.933678 1.2162946,45.628197 0.9219229,45.311611 0.7108635,45.00613"
       id="path71"
       inkscape:connector-curvature="0"
       style="fill:#51777b" /><path
       d="m 3.9045243,42.167934 c 0.055542,0.0056 0.1110835,0.02222 0.1666255,0.03889 0.3332515,0.105526 0.5887446,0.383236 0.7553701,0.783139 l 0,0 c 0.022217,0 0.049988,0 0.072205,0 0.5720816,0 1.0330796,0.149967 1.3052349,0.455448 l 0.00555,0.0055 0,0 0,0 c -0.00555,-0.0055 -0.011108,-0.01111 -0.016663,-0.02222 -0.022217,-0.02777 -0.049988,-0.05554 -0.072205,-0.08331 C 5.8096117,42.99551 5.4263725,42.71225 5.0042538,42.501194 4.9431576,42.467869 4.8765072,42.440098 4.8098573,42.412323 4.5154853,42.295681 4.2155585,42.212372 3.9045243,42.167934"
       id="path73"
       inkscape:connector-curvature="0"
       style="fill:#be3626" /><path
       d="m 0.4275998,43.617584 0,0 c -0.005554,0.0056 -0.0111084,0.02221 -0.0166625,0.02777 0.005554,-0.0056 0.0111083,-0.01666 0.0166625,-0.02777 -0.005554,0.0056 -0.0111084,0.02221 -0.0166625,0.02777 0.005554,-0.0056 0.0111083,-0.01666 0.0166625,-0.02777 -0.4110102,0.549862 -0.6665031,1.22192 -0.7164908,1.949524 -0.005554,0.08331 -0.0111084,0.161064 -0.0111084,0.244381 0,0.161072 0.0111084,0.316586 0.027771,0.472107 0.0333251,0.266602 0.0999754,0.527649 0.1888425,0.772034 -0.027771,-0.08887 -0.0444335,-0.188847 -0.0499877,-0.288822 0,-0.0056 0,-0.01111 0,-0.01666 0,-0.01111 0,-0.02222 0,-0.03332 0,-0.510994 0.3110348,-1.127507 0.8442373,-1.710694 l 0,0 0,0 0,0 0,0 0,0 C 0.460925,44.645107 0.3109619,44.295196 0.3109619,44.006374 c 0,-0.127746 0.0277709,-0.244381 0.0833129,-0.344356 0.0111082,-0.01111 0.0277708,-0.03333 0.033325,-0.04443"
       id="path75"
       inkscape:connector-curvature="0"
       style="fill:#4d6335" /><path
       d="m 6.7593789,47.27779 c -0.00555,0.01112 -0.011108,0.02777 -0.022216,0.03889 -0.1666265,0.28326 -0.544311,0.422115 -1.044188,0.422115 -0.4221187,0 -0.9331045,-0.09997 -1.4829693,-0.28326 -0.2055054,0.366577 -0.4332273,0.688717 -0.6776114,0.949764 l 0,0 c -0.4498894,0.488766 -0.9442127,0.783139 -1.3941021,0.783139 -0.099976,0 -0.1999509,-0.01666 -0.2999266,-0.04443 -0.011108,-0.0056 -0.016662,-0.0056 -0.033325,-0.01111 -0.033325,-0.01112 -0.072205,-0.02777 -0.094421,-0.03889 0.2332761,0.116642 0.4832147,0.211064 0.7387077,0.277714 l 0,0 h 0.00555 l 0,0 h 0.00555 0.00555 l 0,0 c 0.2943723,0.0722 0.5998528,0.111084 0.905333,0.111084 0.5998533,0 1.2052598,-0.144409 1.7495704,-0.444336 0.038879,-0.02222 0.083314,-0.04443 0.1221924,-0.06665 0.2110596,-0.122196 0.4110103,-0.272156 0.5942984,-0.438782 0.1777339,-0.161072 0.3332515,-0.333252 0.4721065,-0.51099 0.011108,-0.01666 0.022217,-0.03332 0.038879,-0.04998 0.00555,-0.01111 0.016663,-0.01666 0.022217,-0.02777 0.1610711,-0.21106 0.2888182,-0.433232 0.3887933,-0.666508 m 0,0 0,0 0,0 m 0,0 0,0 0,0 0,0"
       id="path77"
       inkscape:connector-curvature="0"
       style="fill:#592e27" /></g><g
     id="g79"
     style="opacity:0.6"
     transform="matrix(2.9357485,0,0,2.9357485,2.2163212,-121.22205)"><path
       d="m 94.006844,42.390106 c 0,-0.01666 0,-0.03333 -0.0056,-0.04443 0,-0.01667 -0.0056,-0.02222 -0.01111,-0.02777 -0.0056,-0.0056 -0.02777,-0.01666 -0.05554,-0.01666 -0.02776,-0.0056 -0.07221,-0.01111 -0.127739,-0.01667 0,-0.0056 0,-0.0111 0,-0.0111 0,0 0,-0.0056 0,-0.01112 0,-0.01666 0.0055,-0.02776 0.0111,-0.02776 0.08888,-0.02222 0.155525,-0.04444 0.199951,-0.05555 0.04443,-0.01111 0.08331,-0.02222 0.10553,-0.02777 0.02222,-0.0056 0.03333,-0.01111 0.03888,-0.01111 0.0056,0 0.0056,0 0.0056,0 0.01111,0 0.01666,0.0055 0.02222,0.01666 0.0056,0.0111 0.0056,0.02222 0.0056,0.03332 v 0.87756 c 0.01666,-0.02222 0.03333,-0.04443 0.0611,-0.06665 0.02777,-0.02222 0.05553,-0.04443 0.08886,-0.0611 0.03333,-0.01666 0.0722,-0.03332 0.111092,-0.04443 0.04443,-0.0111 0.08887,-0.01666 0.138855,-0.01666 0.0722,0 0.133301,0.01666 0.194397,0.04443 0.06109,0.02777 0.111084,0.0722 0.155517,0.122185 0.04443,0.04999 0.07776,0.111092 0.09998,0.183292 0.02222,0.07221 0.03333,0.14441 0.03333,0.227726 0,0.09442 -0.01667,0.177731 -0.05555,0.26104 -0.03888,0.08332 -0.08886,0.149967 -0.149956,0.211067 -0.0611,0.0611 -0.133309,0.105526 -0.211067,0.144406 -0.07776,0.03332 -0.161072,0.04998 -0.244385,0.04998 -0.0111,0 -0.03888,0 -0.0722,0 -0.03333,0 -0.0722,0 -0.11663,-0.0056 -0.04444,0 -0.08332,-0.0056 -0.127747,-0.01111 -0.04443,-0.0056 -0.07777,-0.01111 -0.10553,-0.01667 v -1.699578 h 0.01111 z m 0.477661,0.672054 c -0.04443,0 -0.09442,0.0056 -0.144402,0.01112 -0.04999,0.0056 -0.09443,0.01666 -0.144409,0.02776 v 0.794254 c 0.01111,0.0056 0.02776,0.01111 0.04998,0.01666 0.02222,0.0056 0.04444,0.01111 0.06665,0.01667 0.02222,0.0056 0.04999,0.01111 0.07777,0.01111 0.02777,0.0056 0.05554,0.0056 0.07776,0.0056 0.02777,0 0.05554,0 0.08887,-0.0056 0.03332,-0.0056 0.06109,-0.01111 0.08887,-0.01666 0.02777,-0.0056 0.05554,-0.01667 0.08331,-0.03332 0.02777,-0.01111 0.04999,-0.02777 0.06665,-0.04999 0.02777,-0.02777 0.04999,-0.0722 0.06665,-0.1333 0.01666,-0.0611 0.02777,-0.122189 0.02777,-0.19439 0,-0.05555 -0.0056,-0.111091 -0.02222,-0.166626 -0.01667,-0.05555 -0.03888,-0.105537 -0.0722,-0.149971 -0.03333,-0.04443 -0.07777,-0.07776 -0.127746,-0.105526 -0.04999,-0.02777 -0.111092,-0.02777 -0.183296,-0.02777 z"
       id="path81"
       inkscape:connector-curvature="0"
       style="fill:#6e6b60" /><path
       d="m 95.889717,44.134121 c -0.09442,0 -0.177734,-0.01667 -0.249939,-0.04999 -0.0722,-0.03332 -0.133301,-0.07775 -0.177734,-0.133293 -0.04999,-0.05554 -0.08331,-0.116642 -0.105538,-0.183292 -0.02221,-0.06665 -0.03332,-0.138851 -0.03332,-0.211056 0,-0.10553 0.01666,-0.199951 0.04999,-0.283268 0.03333,-0.08331 0.07776,-0.155514 0.133301,-0.21661 0.05554,-0.0611 0.116638,-0.10553 0.183289,-0.138855 0.06665,-0.03332 0.133301,-0.04998 0.199951,-0.04998 0.133301,0 0.238831,0.03888 0.311035,0.11108 0.07221,0.07221 0.111084,0.177735 0.111084,0.316586 0,0.02222 0,0.04444 0,0.06665 0,0.02222 -0.0056,0.04444 -0.0056,0.06665 H 95.52314 c 0,0.03888 0,0.07776 0.0056,0.116642 0.0056,0.03888 0.01111,0.07775 0.02777,0.116635 0.01111,0.03888 0.02776,0.07221 0.04999,0.105533 0.02222,0.03333 0.04999,0.06109 0.08887,0.08886 0.03333,0.02777 0.07776,0.04443 0.127739,0.0611 0.05,0.01667 0.111092,0.02222 0.177742,0.02222 0.04443,0 0.08886,-0.0056 0.138855,-0.01111 0.04999,-0.0056 0.09998,-0.01666 0.138855,-0.02777 l 0.0056,0.0056 c -0.02222,0.04998 -0.04999,0.09442 -0.08887,0.122189 -0.03333,0.02777 -0.06665,0.04999 -0.105537,0.06665 -0.03333,0.01667 -0.0722,0.02222 -0.105522,0.02777 -0.03888,0.01111 -0.0722,0.01111 -0.09442,0.01111 z m 0.21106,-0.83313 c 0,-0.02222 -0.0056,-0.05555 -0.01112,-0.08887 -0.0055,-0.03332 -0.01666,-0.06665 -0.03887,-0.09997 -0.01666,-0.03333 -0.04443,-0.0611 -0.08331,-0.08332 -0.03333,-0.02222 -0.08332,-0.03332 -0.138863,-0.03332 -0.03332,0 -0.06665,0.0056 -0.09997,0.01666 -0.03333,0.01112 -0.05554,0.02222 -0.0722,0.03332 -0.02222,0.01667 -0.03889,0.03333 -0.05554,0.05555 -0.01667,0.02222 -0.03333,0.04999 -0.04443,0.07221 -0.01111,0.02777 -0.02222,0.04999 -0.02777,0.07775 -0.0056,0.02777 -0.01112,0.04999 -0.01112,0.06666 l 0.583199,-0.01667 z"
       id="path83"
       inkscape:connector-curvature="0"
       style="fill:#6e6b60" /><path
       d="m 97.056091,43.95639 c 0.01112,0 0.02778,0 0.04443,0 0.01667,0 0.03332,-0.0056 0.04999,-0.0056 0.01666,0 0.03333,-0.0056 0.04999,-0.01111 0.01666,-0.0056 0.03333,-0.01111 0.04443,-0.01111 l 0.0056,0.0056 c -0.03333,0.0722 -0.07777,0.122196 -0.127754,0.155514 -0.04998,0.03333 -0.111077,0.04999 -0.177727,0.04999 -0.08888,0 -0.155525,-0.02222 -0.199951,-0.06665 -0.03888,-0.04443 -0.0611,-0.10553 -0.0611,-0.194397 v -0.866459 h -0.194397 l 0.02222,-0.116635 h 0.172173 v -0.294372 l 0.199951,-0.07776 v 0.366577 h 0.338798 v 0.116635 h -0.338798 v 0.755374 c 0,0.03333 0,0.0611 0.0055,0.08886 0.0056,0.02222 0.01667,0.04444 0.02778,0.0611 0.0111,0.01667 0.03333,0.02777 0.05554,0.03333 0.01666,0.0056 0.04443,0.01111 0.0833,0.01111 z"
       id="path85"
       inkscape:connector-curvature="0"
       style="fill:#6e6b60" /><path
       d="m 98.216927,44.134121 c -0.03333,0 -0.0611,-0.0055 -0.08332,-0.01667 -0.02221,-0.0111 -0.03888,-0.02221 -0.04998,-0.03888 -0.01112,-0.01666 -0.02222,-0.03888 -0.02222,-0.0611 -0.0055,-0.02221 -0.0055,-0.04998 -0.0055,-0.08331 -0.02222,0.03888 -0.05,0.0722 -0.07777,0.09998 -0.02776,0.02221 -0.06109,0.04443 -0.105529,0.06665 -0.04444,0.02222 -0.08886,0.02777 -0.14441,0.02777 -0.04999,0 -0.09998,-0.0056 -0.138847,-0.02222 -0.03888,-0.01666 -0.07777,-0.03332 -0.10553,-0.05555 -0.02777,-0.02221 -0.04999,-0.05553 -0.06665,-0.08886 -0.01667,-0.03333 -0.02223,-0.0722 -0.02223,-0.116642 0,-0.0611 0.01666,-0.122197 0.04999,-0.172181 0.03333,-0.04998 0.07777,-0.09442 0.138855,-0.1333 0.0611,-0.03888 0.127747,-0.06665 0.21106,-0.08331 0.07776,-0.02222 0.166626,-0.02777 0.261047,-0.02777 v -0.205505 c 0,-0.0722 -0.02222,-0.12775 -0.0611,-0.166626 -0.04443,-0.03332 -0.09998,-0.05555 -0.177734,-0.05555 -0.06665,0 -0.111084,0.01111 -0.14441,0.03888 -0.03332,0.02777 -0.04443,0.0611 -0.04443,0.111087 0,0.0056 0,0.01666 0,0.02776 0,0.01112 0,0.02222 0.0056,0.02777 l -0.01666,0.0055 c -0.0056,0 -0.01112,0 -0.01667,0 -0.0056,0 -0.0111,0 -0.01666,0 -0.0056,0 -0.01667,0 -0.03333,-0.0055 -0.01666,0 -0.03333,-0.0056 -0.04443,-0.01111 -0.01666,-0.0055 -0.02777,-0.01667 -0.03888,-0.02777 -0.01111,-0.0111 -0.01666,-0.02777 -0.01666,-0.05555 0,-0.03332 0.01666,-0.0611 0.04999,-0.09442 0.03333,-0.03332 0.07776,-0.05554 0.127746,-0.07775 0.04999,-0.02221 0.10553,-0.03888 0.16108,-0.05554 0.05553,-0.01111 0.105522,-0.02222 0.15551,-0.02222 0.0611,0 0.111084,0.01111 0.149963,0.02777 0.03888,0.02221 0.0722,0.04443 0.09997,0.07776 0.02778,0.03332 0.04444,0.0722 0.05555,0.11108 0.01111,0.03889 0.01666,0.08332 0.01666,0.122196 v 0.627629 c 0,0.05553 0.0056,0.08886 0.02222,0.11108 0.01666,0.02221 0.03888,0.02777 0.07776,0.02777 0.01666,0 0.03888,0 0.0611,-0.0056 0.02221,-0.0056 0.03887,-0.01111 0.04998,-0.01666 l 0.0056,0.0055 c -0.0056,0.01667 -0.01111,0.03333 -0.02777,0.05555 -0.01111,0.02222 -0.02776,0.03888 -0.04443,0.05555 -0.02222,0.01666 -0.04443,0.03332 -0.0722,0.04443 -0.04999,0.02222 -0.08331,0.02777 -0.122192,0.02777 z m -0.166626,-0.560974 c -0.01111,0 -0.02223,0 -0.03333,0 -0.01111,0 -0.02777,0 -0.03888,0 -0.03332,0 -0.06665,0 -0.10553,0.0056 -0.03333,0.0055 -0.0722,0.0111 -0.105537,0.01666 -0.03332,0.0056 -0.06109,0.01666 -0.08886,0.02777 -0.02777,0.01111 -0.04443,0.02221 -0.0611,0.03888 -0.01111,0.0111 -0.02777,0.02777 -0.03333,0.04998 -0.01111,0.02222 -0.01111,0.04444 -0.01111,0.06666 0,0.02221 0.0056,0.04998 0.01666,0.0722 0.01111,0.02221 0.02222,0.04443 0.04443,0.06109 0.02222,0.01667 0.04999,0.03333 0.07776,0.03888 0.03333,0.01111 0.0722,0.01666 0.122193,0.01666 0.03888,0 0.07776,-0.0055 0.111084,-0.01666 0.03888,-0.01111 0.0722,-0.02222 0.10553,-0.03888 v -0.338806 l 0,0 z"
       id="path87"
       inkscape:connector-curvature="0"
       style="fill:#6e6b60" /></g></svg>